# Blender v2.67 (sub 0) OBJ File: ''
# www.blender.org
mtllib fahrstuhl4.mtl
o fahrstuhl_neu_ID21
v -0.028473 0.030712 -0.028465
v -0.028473 0.030712 0.028535
v 0.028527 0.030712 -0.028465
v 0.028527 0.030712 0.028535
v 0.028527 0.120712 -0.028465
v 0.028527 0.120712 0.028535
v -0.028473 0.120712 -0.028465
v -0.028473 0.120712 0.028535
v -0.028473 0.032962 0.027035
v -0.028473 0.032962 -0.026965
v -0.028473 0.118462 0.027035
v -0.028473 0.118462 -0.026965
vt 1.000000 1.000000
vt 0.000000 1.000000
vt 0.000000 0.000000
vt 1.000000 0.000000
vt 0.975000 0.026316
vt 0.975000 0.973684
vt 0.025000 0.026316
vt 0.025000 0.973684
vn 0.000000 -1.000000 0.000000
vn 1.000000 -0.000000 0.000000
vn 0.000000 1.000000 -0.000000
vn -1.000000 0.000000 -0.000000
vn -0.000000 0.000000 1.000000
vn 0.000000 -0.000000 -1.000000
usemtl alu.001
s off
f 4/1/1 2/2/1 1/3/1
f 3/4/1 4/1/1 1/3/1
f 6/1/2 4/2/2 3/3/2
f 5/4/2 6/1/2 3/3/2
f 8/1/3 6/2/3 5/3/3
f 7/4/3 8/1/3 5/3/3
f 10/5/4 1/4/4 2/1/4
f 9/6/4 10/5/4 2/1/4
f 1/4/4 10/5/4 12/7/4
f 7/3/4 1/4/4 12/7/4
f 7/3/4 12/7/4 11/8/4
f 8/2/4 7/3/4 11/8/4
f 9/6/4 2/1/4 8/2/4
f 11/8/4 9/6/4 8/2/4
f 6/1/5 8/2/5 2/3/5
f 4/4/5 6/1/5 2/3/5
f 3/1/6 1/2/6 7/3/6
f 5/4/6 3/1/6 7/3/6
